# xmcd CD database file
#
# Track frame offsets:
#	150
#	18494
#	40992
#	58886
#	78500
#	98672
#	117922
#	138412
#	159266
#	176458
#	194148
#	215032
#	236856
#	260392
#	284422
#
# Disc length: 4128 seconds
#
# Revision: 0
# Processed by: cddbd v1.5.2PL0 Copyright (c) Steve Scherf et al.
# Submitted via: CDex 1.70beta2
#
DISCID=de101e0f
DTITLE=Wolfgang Buschner liest Karl May - Der Ölprinz
DYEAR=2006
DGENRE=Hörbuch Karl May
TTITLE0=Der Ölprinz-CD04-01
TTITLE1=Der Ölprinz-CD04-02
TTITLE2=Der Ölprinz-CD04-03
TTITLE3=Der Ölprinz-CD04-04
TTITLE4=Der Ölprinz-CD04-05
TTITLE5=Der Ölprinz-CD04-06
TTITLE6=Der Ölprinz-CD04-07
TTITLE7=Der Ölprinz-CD04-08
TTITLE8=Der Ölprinz-CD04-09
TTITLE9=Der Ölprinz-CD04-10
TTITLE10=Der Ölprinz-CD04-11
TTITLE11=Der Ölprinz-CD04-12
TTITLE12=Der Ölprinz-CD04-13
TTITLE13=Der Ölprinz-CD04-14
TTITLE14=Der Ölprinz-CD04-15 bws
EXTD=YEAR: 2006
EXTT0=
EXTT1=
EXTT2=
EXTT3=
EXTT4=
EXTT5=
EXTT6=
EXTT7=
EXTT8=
EXTT9=
EXTT10=
EXTT11=
EXTT12=
EXTT13=
EXTT14=
PLAYORDER=
